<svg xmlns="http://www.w3.org/2000/svg" version="1.1" viewBox="8.91999 18.69999 141.6 126.3" style="max-height: 500px" width="141.6" height="126.3">
<path transform="translate(56,66)" fill="#E461ED" d="M0 0 C3.3 0 6.6 0 10 0 C10 2.97 10 5.94 10 9 C19.24 9 28.48 9 38 9 C38 6.03 38 3.06 38 0 C40.97 0 43.94 0 47 0 C47 2.97 47 5.94 47 9 C49.97 9 52.94 9 56 9 C56 11.97 56 14.94 56 18 C59.3 18 62.6 18 66 18 C66 33.51 66 49.02 66 65 C59.73 65 53.46 65 47 65 C47 68.3 47 71.6 47 75 C31.49 75 15.98 75 0 75 C0 71.7 0 68.4 0 65 C-6.27 65 -12.54 65 -19 65 C-19 49.49 -19 33.98 -19 18 C-15.7 18 -12.4 18 -9 18 C-9 15.03 -9 12.06 -9 9 C-6.03 9 -3.06 9 0 9 C0 6.03 0 3.06 0 0 Z"/>
<path transform="translate(94,66)" fill="#D250F1" d="M0 0 C2.97 0 5.94 0 9 0 C9 2.97 9 5.94 9 9 C11.97 9 14.94 9 18 9 C18 24.51 18 40.02 18 56 C15.03 56 12.06 56 9 56 C9 49.73 9 43.46 9 37 C6.03 37 3.06 37 0 37 C0 43.27 0 49.54 0 56 C-9.24 56 -18.48 56 -28 56 C-28 43.46 -28 30.92 -28 18 C-25.03 18 -22.06 18 -19 18 C-19 15.03 -19 12.06 -19 9 C-12.73 9 -6.46 9 0 9 C0 6.03 0 3.06 0 0 Z"/>
<path transform="translate(66,19)" fill="#CAADA3" d="M0 0 C9.24 0 18.48 0 28 0 C28 2.97 28 5.94 28 9 C30.97 9 33.94 9 37 9 C37 15.27 37 21.54 37 28 C34.03 28 31.06 28 28 28 C28 34.27 28 40.54 28 47 C24.7 47 21.4 47 18 47 C18 40.73 18 34.46 18 28 C15.03 28 12.06 28 9 28 C9 34.27 9 40.54 9 47 C6.03 47 3.06 47 0 47 C0 40.73 0 34.46 0 28 C-3.3 28 -6.6 28 -10 28 C-10 21.73 -10 15.46 -10 9 C-6.7 9 -3.4 9 0 9 C0 6.03 0 3.06 0 0 Z"/>
<path transform="translate(112,84)" fill="#B8B8B8" d="M0 0 C3.3 0 6.6 0 10 0 C10 15.51 10 31.02 10 47 C3.73 47 -2.54 47 -9 47 C-9 50.3 -9 53.6 -9 57 C-24.51 57 -40.02 57 -56 57 C-56 53.7 -56 50.4 -56 47 C-46.76 47 -37.52 47 -28 47 C-28 44.03 -28 41.06 -28 38 C-24.7 38 -21.4 38 -18 38 C-18 31.73 -18 25.46 -18 19 C-15.03 19 -12.06 19 -9 19 C-9 25.27 -9 31.54 -9 38 C-6.03 38 -3.06 38 0 38 C0 25.46 0 12.92 0 0 Z"/>
<path transform="translate(66,37)" fill="#A84421" d="M0 0 C9.24 0 18.48 0 28 0 C28 9.57 28 19.14 28 29 C24.7 29 21.4 29 18 29 C18 22.73 18 16.46 18 10 C15.03 10 12.06 10 9 10 C9 16.27 9 22.54 9 29 C6.03 29 3.06 29 0 29 C0 19.43 0 9.86 0 0 Z"/>
<path transform="translate(84,84)" fill="#BF4FD1" d="M0 0 C3.3 0 6.6 0 10 0 C10 12.54 10 25.08 10 38 C3.73 38 -2.54 38 -9 38 C-9 28.76 -9 19.52 -9 10 C-6.03 10 -3.06 10 0 10 C0 6.7 0 3.4 0 0 Z"/>
<path transform="translate(37,84)" fill="#CCCCCC" d="M0 0 C3.3 0 6.6 0 10 0 C10 12.54 10 25.08 10 38 C12.97 38 15.94 38 19 38 C19 40.97 19 43.94 19 47 C12.73 47 6.46 47 0 47 C0 31.49 0 15.98 0 0 Z"/>
<path transform="translate(56,66)" fill="#FC68FF" d="M0 0 C3.3 0 6.6 0 10 0 C10 2.97 10 5.94 10 9 C12.97 9 15.94 9 19 9 C19 11.97 19 14.94 19 18 C16.03 18 13.06 18 10 18 C10 24.27 10 30.54 10 37 C6.7 37 3.4 37 0 37 C0 30.73 0 24.46 0 18 C-2.97 18 -5.94 18 -9 18 C-9 15.03 -9 12.06 -9 9 C-6.03 9 -3.06 9 0 9 C0 6.03 0 3.06 0 0 Z"/>
<path transform="translate(103,75)" fill="#BF51D6" d="M0 0 C2.97 0 5.94 0 9 0 C9 15.51 9 31.02 9 47 C6.03 47 3.06 47 0 47 C0 31.49 0 15.98 0 0 Z"/>
<path transform="translate(47,84)" fill="#BF4FD7" d="M0 0 C2.97 0 5.94 0 9 0 C9 12.54 9 25.08 9 38 C6.03 38 3.06 38 0 38 C0 25.46 0 12.92 0 0 Z"/>
<path transform="translate(94,66)" fill="#E963F9" d="M0 0 C2.97 0 5.94 0 9 0 C9 12.21 9 24.42 9 37 C6.03 37 3.06 37 0 37 C0 24.79 0 12.58 0 0 Z"/>
<path transform="translate(75,94)" fill="#9D40B2" d="M0 0 C2.97 0 5.94 0 9 0 C9 9.24 9 18.48 9 28 C6.03 28 3.06 28 0 28 C0 18.76 0 9.52 0 0 Z"/>
<path transform="translate(66,19)" fill="#BA5430" d="M0 0 C9.24 0 18.48 0 28 0 C28 2.97 28 5.94 28 9 C18.76 9 9.52 9 0 9 C0 6.03 0 3.06 0 0 Z"/>
<path transform="translate(56,103)" fill="#E961F4" d="M0 0 C3.3 0 6.6 0 10 0 C10 6.27 10 12.54 10 19 C6.7 19 3.4 19 0 19 C0 12.73 0 6.46 0 0 Z"/>
<path transform="translate(84,84)" fill="#C450DC" d="M0 0 C3.3 0 6.6 0 10 0 C10 6.27 10 12.54 10 19 C6.7 19 3.4 19 0 19 C0 12.73 0 6.46 0 0 Z"/>
<path transform="translate(56,84)" fill="#E1E1E1" d="M0 0 C3.3 0 6.6 0 10 0 C10 6.27 10 12.54 10 19 C6.7 19 3.4 19 0 19 C0 12.73 0 6.46 0 0 Z"/>
<path transform="translate(84,47)" fill="#B8B8B8" d="M0 0 C3.3 0 6.6 0 10 0 C10 6.27 10 12.54 10 19 C6.7 19 3.4 19 0 19 C0 12.73 0 6.46 0 0 Z"/>
<path transform="translate(56,28)" fill="#E1E1E1" d="M0 0 C3.3 0 6.6 0 10 0 C10 6.27 10 12.54 10 19 C6.7 19 3.4 19 0 19 C0 12.73 0 6.46 0 0 Z"/>
<path transform="translate(103,103)" fill="#A242BA" d="M0 0 C2.97 0 5.94 0 9 0 C9 6.27 9 12.54 9 19 C6.03 19 3.06 19 0 19 C0 12.73 0 6.46 0 0 Z"/>
<path transform="translate(66,103)" fill="#BC4FCB" d="M0 0 C2.97 0 5.94 0 9 0 C9 6.27 9 12.54 9 19 C6.03 19 3.06 19 0 19 C0 12.73 0 6.46 0 0 Z"/>
<path transform="translate(94,103)" fill="#B8B8B8" d="M0 0 C2.97 0 5.94 0 9 0 C9 6.27 9 12.54 9 19 C6.03 19 3.06 19 0 19 C0 12.73 0 6.46 0 0 Z"/>
<path transform="translate(66,47)" fill="#CCCCCC" d="M0 0 C2.97 0 5.94 0 9 0 C9 6.27 9 12.54 9 19 C6.03 19 3.06 19 0 19 C0 12.73 0 6.46 0 0 Z"/>
<path transform="translate(94,28)" fill="#CCCCCC" d="M0 0 C2.97 0 5.94 0 9 0 C9 6.27 9 12.54 9 19 C6.03 19 3.06 19 0 19 C0 12.73 0 6.46 0 0 Z"/>
<path transform="translate(66,84)" fill="#C752E6" d="M0 0 C1.32 0 2.64 0 4 0 C4 3.3 4 6.6 4 10 C5.65 10 7.3 10 9 10 C9 12.97 9 15.94 9 19 C6.03 19 3.06 19 0 19 C0 12.73 0 6.46 0 0 Z"/>
<path transform="translate(37,84)" fill="#E1E1E1" d="M0 0 C3.3 0 6.6 0 10 0 C10 3.3 10 6.6 10 10 C6.7 10 3.4 10 0 10 C0 6.7 0 3.4 0 0 Z"/>
<path transform="translate(84,37)" fill="#953616" d="M0 0 C3.3 0 6.6 0 10 0 C10 3.3 10 6.6 10 10 C6.7 10 3.4 10 0 10 C0 6.7 0 3.4 0 0 Z"/>
<path transform="translate(56,122)" fill="#BF4ECA" d="M0 0 C3.3 0 6.6 0 10 0 C10 2.97 10 5.94 10 9 C6.7 9 3.4 9 0 9 C0 6.03 0 3.06 0 0 Z"/>
<path transform="translate(47,84)" fill="#D556FF" d="M0 0 C2.97 0 5.94 0 9 0 C9 3.3 9 6.6 9 10 C6.03 10 3.06 10 0 10 C0 6.7 0 3.4 0 0 Z"/>
<path transform="translate(84,75)" fill="#C950F4" d="M0 0 C3.3 0 6.6 0 10 0 C10 2.97 10 5.94 10 9 C6.7 9 3.4 9 0 9 C0 6.03 0 3.06 0 0 Z"/>
<path transform="translate(56,66)" fill="#E1E1E1" d="M0 0 C3.3 0 6.6 0 10 0 C10 2.97 10 5.94 10 9 C6.7 9 3.4 9 0 9 C0 6.03 0 3.06 0 0 Z"/>
<path transform="translate(66,37)" fill="#BF5B38" d="M0 0 C2.97 0 5.94 0 9 0 C9 3.3 9 6.6 9 10 C6.03 10 3.06 10 0 10 C0 6.7 0 3.4 0 0 Z"/>
<path transform="translate(84,19)" fill="#A74625" d="M0 0 C3.3 0 6.6 0 10 0 C10 2.97 10 5.94 10 9 C6.7 9 3.4 9 0 9 C0 6.03 0 3.06 0 0 Z"/>
<path transform="translate(94,122)" fill="#A044B7" d="M0 0 C2.97 0 5.94 0 9 0 C9 2.97 9 5.94 9 9 C6.03 9 3.06 9 0 9 C0 6.03 0 3.06 0 0 Z"/>
<path transform="translate(47,122)" fill="#B8B8B8" d="M0 0 C2.97 0 5.94 0 9 0 C9 2.97 9 5.94 9 9 C6.03 9 3.06 9 0 9 C0 6.03 0 3.06 0 0 Z"/>
<path transform="translate(103,103)" fill="#9844AE" d="M0 0 C2.97 0 5.94 0 9 0 C9 2.97 9 5.94 9 9 C6.03 9 3.06 9 0 9 C0 6.03 0 3.06 0 0 Z"/>
<path transform="translate(66,103)" fill="#C14FD8" d="M0 0 C2.97 0 5.94 0 9 0 C9 2.97 9 5.94 9 9 C6.03 9 3.06 9 0 9 C0 6.03 0 3.06 0 0 Z"/>
<path transform="translate(75,94)" fill="#AA47C8" d="M0 0 C2.97 0 5.94 0 9 0 C9 2.97 9 5.94 9 9 C6.03 9 3.06 9 0 9 C0 6.03 0 3.06 0 0 Z"/>
<path transform="translate(47,94)" fill="#C258DB" d="M0 0 C2.97 0 5.94 0 9 0 C9 2.97 9 5.94 9 9 C6.03 9 3.06 9 0 9 C0 6.03 0 3.06 0 0 Z"/>
<path transform="translate(103,75)" fill="#B8B8B8" d="M0 0 C2.97 0 5.94 0 9 0 C9 2.97 9 5.94 9 9 C6.03 9 3.06 9 0 9 C0 6.03 0 3.06 0 0 Z"/>
<path transform="translate(75,75)" fill="#DD5CFB" d="M0 0 C2.97 0 5.94 0 9 0 C9 2.97 9 5.94 9 9 C6.03 9 3.06 9 0 9 C0 6.03 0 3.06 0 0 Z"/>
<path transform="translate(66,75)" fill="#E1E1E1" d="M0 0 C2.97 0 5.94 0 9 0 C9 2.97 9 5.94 9 9 C6.03 9 3.06 9 0 9 C0 6.03 0 3.06 0 0 Z"/>
<path transform="translate(47,75)" fill="#E1E1E1" d="M0 0 C2.97 0 5.94 0 9 0 C9 2.97 9 5.94 9 9 C6.03 9 3.06 9 0 9 C0 6.03 0 3.06 0 0 Z"/>
<path transform="translate(94,66)" fill="#B8B8B8" d="M0 0 C2.97 0 5.94 0 9 0 C9 2.97 9 5.94 9 9 C6.03 9 3.06 9 0 9 C0 6.03 0 3.06 0 0 Z"/>
<path transform="translate(94,28)" fill="#E1E1E1" d="M0 0 C2.97 0 5.94 0 9 0 C9 2.97 9 5.94 9 9 C6.03 9 3.06 9 0 9 C0 6.03 0 3.06 0 0 Z"/>
<path transform="translate(66,19)" fill="#D16C48" d="M0 0 C2.97 0 5.94 0 9 0 C9 2.97 9 5.94 9 9 C6.03 9 3.06 9 0 9 C0 6.03 0 3.06 0 0 Z"/>
<path transform="translate(94,75)" fill="#F964FD" d="M0 0 C2.97 0 5.94 0 9 0 C9 1.65 9 3.3 9 5 C7.35 5 5.7 5 4 5 C4 6.32 4 7.64 4 9 C2.68 9 1.36 9 0 9 C0 6.03 0 3.06 0 0 Z"/>
<path transform="translate(61,112)" fill="#E362F0" d="M0 0 C1.65 0 3.3 0 5 0 C5 3.3 5 6.6 5 10 C3.35 10 1.7 10 0 10 C0 6.7 0 3.4 0 0 Z"/>
<path transform="translate(47,117)" fill="#B452B7" d="M0 0 C2.97 0 5.94 0 9 0 C9 1.65 9 3.3 9 5 C6.03 5 3.06 5 0 5 C0 3.35 0 1.7 0 0 Z"/>
<path transform="translate(80,84)" fill="#C951E4" d="M0 0 C1.32 0 2.64 0 4 0 C4 3.3 4 6.6 4 10 C2.68 10 1.36 10 0 10 C0 6.7 0 3.4 0 0 Z"/>
<path transform="translate(47,94)" fill="#C94FE9" d="M0 0 C1.32 0 2.64 0 4 0 C4 2.97 4 5.94 4 9 C2.68 9 1.36 9 0 9 C0 6.03 0 3.06 0 0 Z"/>
<path transform="translate(61,112)" fill="#DD64E3" d="M0 0 C1.65 0 3.3 0 5 0 C5 1.65 5 3.3 5 5 C3.35 5 1.7 5 0 5 C0 3.35 0 1.7 0 0 Z"/>
<path transform="translate(51,112)" fill="#C155CD" d="M0 0 C1.65 0 3.3 0 5 0 C5 1.65 5 3.3 5 5 C3.35 5 1.7 5 0 5 C0 3.35 0 1.7 0 0 Z"/>
<path transform="translate(103,103)" fill="#994BB8" d="M0 0 C1.65 0 3.3 0 5 0 C5 1.65 5 3.3 5 5 C3.35 5 1.7 5 0 5 C0 3.35 0 1.7 0 0 Z"/>
<path transform="translate(51,89)" fill="#C855F2" d="M0 0 C1.65 0 3.3 0 5 0 C5 1.65 5 3.3 5 5 C3.35 5 1.7 5 0 5 C0 3.35 0 1.7 0 0 Z"/>
<path transform="translate(75,84)" fill="#D847FF" d="M0 0 C1.65 0 3.3 0 5 0 C5 1.65 5 3.3 5 5 C3.35 5 1.7 5 0 5 C0 3.35 0 1.7 0 0 Z"/>
<path transform="translate(75,75)" fill="#DC63F0" d="M0 0 C1.65 0 3.3 0 5 0 C5 1.65 5 3.3 5 5 C3.35 5 1.7 5 0 5 C0 3.35 0 1.7 0 0 Z"/>
<path transform="translate(94,126)" fill="#9144AE" d="M0 0 C1.32 0 2.64 0 4 0 C4 1.65 4 3.3 4 5 C2.68 5 1.36 5 0 5 C0 3.35 0 1.7 0 0 Z"/>
<path transform="translate(80,126)" fill="#EB5EF8" d="M0 0 C1.32 0 2.64 0 4 0 C4 1.65 4 3.3 4 5 C2.68 5 1.36 5 0 5 C0 3.35 0 1.7 0 0 Z"/>
<path transform="translate(47,117)" fill="#B651C9" d="M0 0 C1.32 0 2.64 0 4 0 C4 1.65 4 3.3 4 5 C2.68 5 1.36 5 0 5 C0 3.35 0 1.7 0 0 Z"/>
<path transform="translate(47,103)" fill="#C557DE" d="M0 0 C1.32 0 2.64 0 4 0 C4 1.65 4 3.3 4 5 C2.68 5 1.36 5 0 5 C0 3.35 0 1.7 0 0 Z"/>
<path transform="translate(80,84)" fill="#CC57F5" d="M0 0 C1.32 0 2.64 0 4 0 C4 1.65 4 3.3 4 5 C2.68 5 1.36 5 0 5 C0 3.35 0 1.7 0 0 Z"/>
</svg>